<svg width="16" height="16" viewBox="0 0 16 16" fill="none" xmlns="http://www.w3.org/2000/svg">
<path d="M12 7.42419C12 10.6056 8 13.3333 8 13.3333C8 13.3333 4 10.6056 4 7.42419C4 6.33922 4.42143 5.29869 5.17157 4.5315C5.92172 3.76431 6.93913 3.33331 8 3.33331C9.06087 3.33331 10.0783 3.76431 10.8284 4.5315C11.5786 5.29869 12 6.33922 12 7.42419V7.42419Z" stroke="#222329" stroke-linecap="round" stroke-linejoin="round"/>
<path d="M9.33317 7.33333C9.33317 7.59707 9.25496 7.85488 9.10842 8.07416C8.96188 8.29344 8.7536 8.46434 8.50993 8.56524C8.26625 8.66613 7.99813 8.6925 7.73947 8.641C7.48081 8.5895 7.24323 8.46244 7.05679 8.2759C6.87035 8.08937 6.74341 7.85173 6.69204 7.59304C6.64067 7.33435 6.66717 7.06624 6.76819 6.82262C6.86921 6.579 7.04021 6.37081 7.25957 6.22438C7.47892 6.07795 7.73678 5.99987 8.00051 6C8.35402 6.00018 8.69298 6.14073 8.94289 6.39076C9.19279 6.64079 9.33317 6.97983 9.33317 7.33333V7.33333Z" stroke="#222329" stroke-linecap="round" stroke-linejoin="round"/>
</svg>
