<svg width="10" height="12" viewBox="0 0 10 12" fill="none" xmlns="http://www.w3.org/2000/svg">
<path d="M9 5.09088C9 8.27229 5 11 5 11C5 11 1 8.27229 1 5.09088C1 4.00591 1.42143 2.96538 2.17157 2.19819C2.92172 1.431 3.93913 1 5 1C6.06087 1 7.07828 1.431 7.82843 2.19819C8.57857 2.96538 9 4.00591 9 5.09088V5.09088Z" stroke="#222329" stroke-linecap="round" stroke-linejoin="round"/>
<path d="M6.33317 4.99996C6.33317 5.2637 6.25496 5.52151 6.10842 5.74079C5.96188 5.96007 5.7536 6.13097 5.50993 6.23186C5.26625 6.33276 4.99813 6.35912 4.73947 6.30762C4.48081 6.25612 4.24323 6.12907 4.05679 5.94253C3.87035 5.75599 3.74341 5.51835 3.69204 5.25967C3.64067 5.00098 3.66717 4.73287 3.76819 4.48925C3.86921 4.24562 4.04021 4.03743 4.25957 3.891C4.47892 3.74458 4.73678 3.66649 5.00051 3.66663C5.35402 3.66681 5.69298 3.80736 5.94289 4.05739C6.19279 4.30742 6.33317 4.64645 6.33317 4.99996V4.99996Z" stroke="#222329" stroke-linecap="round" stroke-linejoin="round"/>
</svg>
