<svg width="138" height="18" viewBox="0 0 138 18" fill="none" xmlns="http://www.w3.org/2000/svg">
<path d="M0.6 0.303999V18H17.112V14.32H4.6V10.8H15.448V7.184H4.6V3.92H16.664V0.303999H0.6ZM19.684 0.303999L25.636 8.784L19.332 18H23.972L28.804 10.704H30.052L34.884 18H39.524L33.252 8.688L39.172 0.303999H34.628L29.988 7.12H28.868L24.228 0.303999H19.684Z" fill="#7854F7"/>
<path d="M51.5118 3.856H52.8878L56.0878 11.824H48.2158L51.5118 3.856ZM49.0158 0.303999L41.3038 18H45.5918L46.7438 15.312H57.6558L58.8078 18H63.0318L55.5118 0.303999H49.0158ZM65.6 0.303999V18H69.472V5.616H69.664L75.424 18H78.784L84.768 5.616H84.96V18H88.896V0.303999H83.776L77.312 13.136H77.152L70.944 0.303999H65.6ZM92.1 0.303999V18H96.1V0.303999H92.1ZM99.2875 0.303999V18H103.224V6.064L113.816 18H117.624V0.303999H113.656V12.208L103.064 0.303999H99.2875ZM120.819 0.303999V18H137.331V14.32H124.819V10.8H135.667V7.184H124.819V3.92H136.883V0.303999H120.819Z" fill="#272D4E"/>
</svg>
