<svg width="12" height="13" viewBox="0 0 12 13" fill="none" xmlns="http://www.w3.org/2000/svg">
<path d="M9.08114 7.58114L10.1776 8.67762C10.3557 8.85566 10.3557 9.14434 10.1776 9.32238C9.21501 10.285 7.69106 10.3933 6.60199 9.5765L6.04813 9.1611C5.02126 8.39094 4.10906 7.47874 3.3389 6.45187L2.9235 5.89801C2.1067 4.80894 2.21501 3.28499 3.17762 2.32238C3.35566 2.14434 3.64434 2.14434 3.82238 2.32238L4.91886 3.41886C5.23982 3.73982 5.23982 4.26018 4.91886 4.58114L4.63587 4.86413C4.55473 4.94527 4.53461 5.06923 4.58593 5.17187C5.17926 6.35853 6.14147 7.32074 7.32813 7.91407C7.43077 7.96539 7.55473 7.94527 7.63587 7.86413L7.91886 7.58114C8.23982 7.26018 8.76018 7.26018 9.08114 7.58114Z" stroke="#272D4E"/>
</svg>
