<svg width="16" height="16" viewBox="0 0 16 16" fill="none" xmlns="http://www.w3.org/2000/svg">
<path fill-rule="evenodd" clip-rule="evenodd" d="M11.2102 4.19087C10.7864 4.26625 10.2074 4.45789 9.36333 4.73923L5.65807 5.97432C4.97791 6.20104 4.49769 6.36154 4.16143 6.5047C3.99492 6.57559 3.88356 6.63415 3.81022 6.68337C3.74774 6.7253 3.73002 6.74915 3.72854 6.75116C3.63994 6.90559 3.64013 7.09552 3.72911 7.2498C3.72868 7.24904 3.72843 7.24866 3.72843 7.24866C3.72847 7.24863 3.74483 7.27271 3.81022 7.3166C3.88356 7.36582 3.99492 7.42438 4.16143 7.49526C4.49769 7.63843 4.97791 7.79892 5.65807 8.02564C5.67946 8.03277 5.70056 8.03979 5.72138 8.04673C6.19936 8.20588 6.52992 8.31594 6.8122 8.50543C7.08178 8.6864 7.31353 8.91815 7.4945 9.18774C7.68399 9.47001 7.79406 9.80058 7.95321 10.2786C7.96014 10.2994 7.96717 10.3205 7.9743 10.3419C8.20101 11.022 8.36151 11.5022 8.50467 11.8385C8.57556 12.005 8.63412 12.1164 8.68334 12.1897C8.72526 12.2522 8.74911 12.2699 8.75113 12.2714C8.90556 12.36 9.0955 12.3598 9.24977 12.2708C9.24901 12.2713 9.24864 12.2715 9.24863 12.2715C9.24861 12.2715 9.27268 12.2551 9.31657 12.1897C9.36579 12.1164 9.42435 12.005 9.49524 11.8385C9.6384 11.5022 9.79889 11.022 10.0256 10.3419L11.2607 6.6366C11.542 5.79257 11.7337 5.21349 11.8091 4.78975C11.8851 4.36239 11.8101 4.2653 11.7724 4.22757C11.7346 4.18983 11.6375 4.11484 11.2102 4.19087ZM11.035 3.20633C11.5448 3.11564 12.0802 3.12118 12.4795 3.52046C12.8788 3.91974 12.8843 4.45511 12.7936 4.96489C12.7038 5.46967 12.4874 6.11882 12.223 6.91199L12.2094 6.95283L10.9743 10.6581L10.9666 10.6813C10.7493 11.3331 10.5763 11.8521 10.4153 12.2302C10.264 12.5857 10.0728 12.9505 9.74941 13.1371C9.28558 13.4046 8.71432 13.4046 8.2505 13.1371C7.92707 12.9505 7.73594 12.5857 7.58459 12.2302C7.42361 11.8521 7.2506 11.3331 7.03336 10.6813L7.02561 10.6581C6.83708 10.0925 6.76867 9.90067 6.66423 9.74509C6.55565 9.58334 6.4166 9.44429 6.25484 9.33571C6.09926 9.23127 5.90743 9.16285 5.34184 8.97432L5.31861 8.96658C4.66686 8.74934 4.14781 8.57632 3.76971 8.41535C3.41421 8.264 3.04943 8.07287 2.86288 7.74943C2.59535 7.28561 2.59535 6.71435 2.86288 6.25053C3.04943 5.9271 3.41421 5.73597 3.76971 5.58461C4.14782 5.42364 4.66688 5.25062 5.31864 5.03337L5.34184 5.02564L9.04711 3.79055L9.08796 3.77693C9.88112 3.51252 10.5303 3.29612 11.035 3.20633Z" fill="white"/>
</svg>
