<svg width="28" height="28" viewBox="0 0 28 28" fill="none" xmlns="http://www.w3.org/2000/svg">
<rect width="28" height="28" rx="14" fill="#7854F7"/>
<path d="M6.29263 13.6913C10.3639 11.8803 13.0787 10.6863 14.4371 10.1094C18.3155 8.46238 19.1214 8.17627 19.6466 8.16672C19.7622 8.16474 20.0205 8.19397 20.1878 8.3326C20.3291 8.44965 20.368 8.60778 20.3866 8.71876C20.4052 8.82974 20.4283 9.08255 20.4099 9.28009C20.1998 11.5348 19.2903 17.0064 18.8277 19.5317C18.6319 20.6003 18.2464 20.9585 17.8733 20.9936C17.0623 21.0698 16.4464 20.4464 15.6609 19.9206C14.4318 19.098 13.7374 18.5859 12.5442 17.7831C11.1654 16.8554 12.0592 16.3455 12.845 15.5121C13.0507 15.2941 16.624 11.9755 16.6932 11.6745C16.7018 11.6368 16.7099 11.4965 16.6282 11.4224C16.5465 11.3483 16.426 11.3736 16.3391 11.3938C16.2158 11.4223 14.2522 12.7475 10.4483 15.3692C9.89091 15.76 9.38607 15.9504 8.93376 15.9404C8.43511 15.9294 7.47592 15.6525 6.76286 15.4159C5.88826 15.1256 5.19315 14.9721 5.25367 14.4791C5.2852 14.2224 5.63152 13.9598 6.29263 13.6913Z" fill="white"/>
</svg>
