<svg width="28" height="28" viewBox="0 0 28 28" fill="none" xmlns="http://www.w3.org/2000/svg">
<rect width="28" height="28" rx="14" fill="#7854F7"/>
<path fill-rule="evenodd" clip-rule="evenodd" d="M22.905 9.64517C23.0349 9.21252 22.905 8.89453 22.2874 8.89453H20.2453C19.726 8.89453 19.4868 9.1692 19.357 9.47217C19.357 9.47217 18.3184 12.0034 16.8472 13.6476C16.3712 14.1236 16.1549 14.2748 15.8952 14.2748C15.7654 14.2748 15.5775 14.1236 15.5775 13.6909V9.64517C15.5775 9.12588 15.4269 8.89453 14.9941 8.89453H11.785C11.4606 8.89453 11.2654 9.1355 11.2654 9.36393C11.2654 9.85624 12.0009 9.96972 12.0767 11.3543V14.3616C12.0767 15.021 11.9577 15.1406 11.698 15.1406C11.0058 15.1406 9.32187 12.5978 8.32297 9.68849C8.12721 9.12296 7.93088 8.89453 7.40896 8.89453H5.36682C4.78335 8.89453 4.66666 9.1692 4.66666 9.47217C4.66666 10.013 5.35909 12.6958 7.89033 16.2439C9.57801 18.6668 11.9554 19.9805 14.1189 19.9805C15.4171 19.9805 15.5775 19.6887 15.5775 19.1862V17.3548C15.5775 16.7714 15.7005 16.655 16.1114 16.655C16.4145 16.655 16.9337 16.8064 18.1454 17.9746C19.53 19.3591 19.7581 19.9805 20.537 19.9805H22.5792C23.1626 19.9805 23.4544 19.6887 23.286 19.113C23.102 18.5391 22.4409 17.7068 21.5636 16.7199C21.0877 16.1573 20.3737 15.5515 20.1575 15.2487C19.8545 14.8592 19.941 14.6862 20.1575 14.3402C20.1575 14.3402 22.6454 10.8353 22.905 9.64531V9.64517Z" fill="white"/>
</svg>
